<svg width="18" height="18" viewBox="0 0 18 18" fill="none" xmlns="http://www.w3.org/2000/svg">
<path d="M9 0.75C7.36831 0.75 5.77326 1.23385 4.41655 2.14038C3.05984 3.0469 2.00242 4.33537 1.378 5.84286C0.753575 7.35035 0.590197 9.00915 0.908525 10.6095C1.22685 12.2098 2.01259 13.6798 3.16637 14.8336C4.32016 15.9874 5.79017 16.7732 7.39051 17.0915C8.99085 17.4098 10.6497 17.2464 12.1571 16.622C13.6646 15.9976 14.9531 14.9402 15.8596 13.5835C16.7662 12.2268 17.25 10.6317 17.25 9C17.2474 6.81276 16.3774 4.71584 14.8308 3.16922C13.2842 1.6226 11.1872 0.75258 9 0.75ZM12.1815 11.1218C12.2531 11.1909 12.3103 11.2737 12.3496 11.3652C12.3889 11.4567 12.4096 11.5551 12.4104 11.6547C12.4113 11.7543 12.3923 11.853 12.3546 11.9452C12.3169 12.0374 12.2612 12.1211 12.1908 12.1915C12.1204 12.262 12.0366 12.3177 11.9445 12.3554C11.8523 12.3931 11.7535 12.4121 11.654 12.4112C11.5544 12.4103 11.456 12.3896 11.3645 12.3503C11.2729 12.311 11.1902 12.2539 11.121 12.1823L9 10.0605L6.879 12.1823C6.73755 12.3189 6.5481 12.3945 6.35145 12.3928C6.15481 12.391 5.9667 12.3122 5.82764 12.1731C5.68858 12.0341 5.60971 11.8459 5.608 11.6493C5.60629 11.4527 5.68189 11.2632 5.8185 11.1218L7.9395 9L5.8185 6.87825C5.74687 6.80906 5.68973 6.72631 5.65043 6.6348C5.61112 6.5433 5.59043 6.44489 5.58957 6.3453C5.5887 6.24572 5.60768 6.14696 5.64539 6.05478C5.6831 5.96261 5.73879 5.87887 5.80921 5.80845C5.87963 5.73803 5.96337 5.68234 6.05554 5.64463C6.14771 5.60692 6.24647 5.58795 6.34605 5.58881C6.44564 5.58968 6.54405 5.61037 6.63556 5.64967C6.72706 5.68898 6.80982 5.74612 6.879 5.81775L9 7.9395L11.121 5.81775C11.1902 5.74612 11.2729 5.68898 11.3645 5.64967C11.456 5.61037 11.5544 5.58968 11.654 5.58881C11.7535 5.58795 11.8523 5.60692 11.9445 5.64463C12.0366 5.68234 12.1204 5.73803 12.1908 5.80845C12.2612 5.87887 12.3169 5.96261 12.3546 6.05478C12.3923 6.14696 12.4113 6.24572 12.4104 6.3453C12.4096 6.44489 12.3889 6.5433 12.3496 6.6348C12.3103 6.72631 12.2531 6.80906 12.1815 6.87825L10.0605 9L12.1815 11.1218Z" fill="#29781D"/>
</svg>
