<svg width="33" height="32" viewBox="0 0 33 32" fill="none" xmlns="http://www.w3.org/2000/svg">
<g clip-path="url(#clip0_147_1022)">
<path d="M32.9441 16C32.9441 7.16344 25.7806 0 16.9441 0C8.10754 0 0.944092 7.16344 0.944092 16C0.944092 24.8366 8.10754 32 16.9441 32C25.7806 32 32.9441 24.8366 32.9441 16Z" fill="#DAE6E1"/>
<path opacity="0.1" d="M28.9862 5.47368C26.6536 9.75579 23.3546 14.1726 19.2325 18.2947C15.1104 22.4168 10.6936 25.7095 6.41778 28.0421C6.14971 27.8091 5.88936 27.5663 5.63673 27.3137C4.10969 25.8376 2.8918 24.0723 2.05407 22.1207C1.21634 20.1691 0.775534 18.0702 0.757361 15.9465C0.739188 13.8227 1.14401 11.7166 1.94822 9.75097C2.75243 7.78531 3.93993 5.99942 5.44149 4.49745C6.94304 2.99547 8.7286 1.80747 10.694 1.00271C12.6595 0.197951 14.7655 -0.207458 16.8892 -0.189878C19.013 -0.172298 21.112 0.26792 23.0638 1.1051C25.0156 1.94229 26.7813 3.15969 28.2578 4.68632C28.5104 4.93895 28.7532 5.2014 28.9862 5.47368Z" fill="white"/>
<path d="M20.7336 7.57895H13.1547C11.9263 7.57895 10.7482 8.06692 9.87963 8.9355C9.01104 9.80409 8.52307 10.9822 8.52307 12.2105V19.7895C8.52307 21.0178 9.01104 22.1959 9.87963 23.0645C10.7482 23.9331 11.9263 24.4211 13.1547 24.4211H20.7336C21.962 24.4211 23.14 23.9331 24.0086 23.0645C24.8772 22.1959 25.3652 21.0178 25.3652 19.7895V12.2105C25.3652 10.9822 24.8772 9.80409 24.0086 8.9355C23.14 8.06692 21.962 7.57895 20.7336 7.57895ZM23.8915 19.1242C23.8915 20.1382 23.4887 21.1106 22.7717 21.8276C22.0547 22.5446 21.0823 22.9474 20.0683 22.9474H13.8199C12.8059 22.9474 11.8335 22.5446 11.1165 21.8276C10.3996 21.1106 9.99676 20.1382 9.99676 19.1242V12.8758C9.99676 11.8618 10.3996 10.8894 11.1165 10.1724C11.8335 9.45543 12.8059 9.05263 13.8199 9.05263H20.0683C21.0823 9.05263 22.0547 9.45543 22.7717 10.1724C23.4887 10.8894 23.8915 11.8618 23.8915 12.8758V19.1242Z" fill="#29781D"/>
<path d="M20.0157 12.96L19.9757 12.92L19.942 12.8863C19.146 12.0931 18.0679 11.6479 16.9441 11.6484C16.3767 11.6523 15.8155 11.7679 15.2927 11.9887C14.7699 12.2095 14.2957 12.5312 13.8973 12.9353C13.4989 13.3394 13.1839 13.818 12.9705 14.3439C12.7572 14.8698 12.6495 15.4325 12.6536 16C12.6528 17.1517 13.1067 18.2571 13.9168 19.0758C14.3136 19.4774 14.7864 19.7959 15.3076 20.0128C15.8288 20.2297 16.388 20.3406 16.9526 20.3389C17.7994 20.3212 18.6227 20.0574 19.3222 19.5797C20.0217 19.1021 20.567 18.4312 20.8918 17.6489C21.2165 16.8667 21.3066 16.0068 21.151 15.1742C20.9955 14.3416 20.601 13.5723 20.0157 12.96ZM16.9441 18.8547C16.3779 18.8627 15.8221 18.702 15.3474 18.3932C14.8727 18.0844 14.5006 17.6413 14.2784 17.1205C14.0562 16.5996 13.9939 16.0244 14.0995 15.468C14.2051 14.9116 14.4737 14.3992 14.8714 13.996C15.269 13.5927 15.7775 13.3168 16.3323 13.2034C16.8872 13.09 17.4632 13.1441 17.9872 13.359C18.5111 13.5738 18.9594 13.9396 19.2749 14.4099C19.5903 14.8802 19.7588 15.4337 19.7589 16C19.7617 16.3723 19.691 16.7415 19.5511 17.0865C19.4111 17.4315 19.2045 17.7455 18.9431 18.0106C18.6817 18.2758 18.3706 18.4868 18.0276 18.6316C17.6846 18.7764 17.3165 18.8523 16.9441 18.8547Z" fill="#29781D"/>
<path d="M22.5083 11.4484C22.5094 11.5835 22.4839 11.7175 22.4331 11.8427C22.3824 11.9679 22.3075 12.0819 22.2126 12.1781C22.1178 12.2743 22.0049 12.3509 21.8804 12.4034C21.756 12.4559 21.6224 12.4834 21.4873 12.4842C21.3533 12.4841 21.2207 12.4575 21.0971 12.4058C20.9735 12.3542 20.8614 12.2785 20.7673 12.1832C20.6246 12.0384 20.5276 11.8551 20.4882 11.6557C20.4489 11.4564 20.4689 11.2499 20.5458 11.0618C20.6226 10.8738 20.753 10.7124 20.9208 10.5977C21.0885 10.4831 21.2862 10.4202 21.4894 10.4168C21.7271 10.4168 21.9574 10.5002 22.1399 10.6526L22.1609 10.6737C22.1949 10.7013 22.2259 10.7324 22.2536 10.7663L22.2767 10.7916C22.4274 10.9772 22.5092 11.2093 22.5083 11.4484Z" fill="#29781D"/>
</g>
<defs>
<clipPath id="clip0_147_1022">
<rect width="32" height="32" fill="white" transform="translate(0.944092)"/>
</clipPath>
</defs>
</svg>
