<svg width="33" height="32" viewBox="0 0 33 32" fill="none" xmlns="http://www.w3.org/2000/svg">
<g clip-path="url(#clip0_147_1033)">
<path d="M16.9441 31.9995C25.7806 31.9995 32.9441 24.8361 32.9441 15.9995C32.9441 7.16298 25.7806 -0.000463486 16.9441 -0.000463486C8.10754 -0.000463486 0.944092 7.16298 0.944092 15.9995C0.944092 24.8361 8.10754 31.9995 16.9441 31.9995Z" fill="#DAE6E1"/>
<path d="M26.5039 17.2872V23.8836H22.6795V17.7293C22.6795 16.184 22.1273 15.1287 20.7426 15.1287C19.6859 15.1287 19.0581 15.8391 18.7809 16.5271C18.6802 16.7729 18.6543 17.1143 18.6543 17.4592V23.8833H14.8295C14.8295 23.8833 14.8809 13.4599 14.8295 12.3809H18.6545V14.0109C18.6468 14.0237 18.636 14.0363 18.6292 14.0486H18.6545V14.0109C19.1628 13.2289 20.0692 12.1108 22.1014 12.1108C24.6175 12.1108 26.5039 13.7548 26.5039 17.2872ZM10.8285 6.83632C9.52024 6.83632 8.66431 7.69511 8.66431 8.82342C8.66431 9.92777 9.49542 10.8114 10.7783 10.8114H10.8031C12.1371 10.8114 12.9665 9.92777 12.9665 8.82342C12.9411 7.69511 12.1371 6.83632 10.8285 6.83632ZM8.89162 23.8836H12.7149V12.3809H8.89162V23.8836Z" fill="#29781D"/>
</g>
<defs>
<clipPath id="clip0_147_1033">
<rect width="32" height="32" fill="white" transform="translate(0.944092)"/>
</clipPath>
</defs>
</svg>
