<svg width="32" height="32" viewBox="0 0 32 32" fill="none" xmlns="http://www.w3.org/2000/svg">
<g id="Twitter">
<g id="Color">
<g id="04.Twitter">
<path id="Background" d="M15.972 31.9441C24.7932 31.9441 31.9441 24.7932 31.9441 15.972C31.9441 7.15093 24.7932 0 15.972 0C7.15093 0 0 7.15093 0 15.972C0 24.7932 7.15093 31.9441 15.972 31.9441Z" fill="#03A9F4"/>
<path id="Icon" d="M26.3181 9.5559C25.5399 9.89578 24.7167 10.1216 23.874 10.2263C24.7623 9.69951 25.4264 8.86494 25.7402 7.88094C24.9087 8.37447 23.9989 8.72205 23.0501 8.90862C22.4688 8.28686 21.7137 7.85445 20.8833 7.66761C20.0528 7.48077 19.1853 7.54816 18.3937 7.861C17.6021 8.17385 16.9229 8.71768 16.4445 9.42176C15.9661 10.1258 15.7107 10.9576 15.7114 11.8088C15.7084 12.1337 15.7415 12.4579 15.8102 12.7755C14.1225 12.6926 12.4714 12.2547 10.9645 11.4902C9.45771 10.7257 8.1291 9.65198 7.06548 8.33909C6.51878 9.27305 6.3494 10.3805 6.59198 11.4352C6.83455 12.4899 7.47076 13.4121 8.37057 14.0134C7.69895 13.9953 7.04156 13.8158 6.45392 13.4901V13.5363C6.45581 14.5153 6.79467 15.4638 7.41353 16.2223C8.03239 16.9809 8.89352 17.5032 9.85218 17.7016C9.48939 17.797 9.11554 17.8436 8.74045 17.8404C8.47036 17.8453 8.20052 17.8214 7.93554 17.7689C8.21019 18.6108 8.73895 19.347 9.4491 19.8761C10.1593 20.4053 11.0159 20.7014 11.9012 20.7237C10.401 21.8964 8.55146 22.5333 6.64727 22.5332C6.30798 22.5361 5.96888 22.5164 5.6322 22.4743C7.5738 23.7262 9.83697 24.3876 12.1471 24.3784C19.9545 24.3784 24.2228 17.9118 24.2228 12.3069C24.2228 12.1198 24.2228 11.9391 24.2081 11.7584C25.0394 11.1584 25.7544 10.4121 26.3181 9.5559Z" fill="white"/>
</g>
</g>
</g>
</svg>
