<svg width="32" height="32" viewBox="0 0 32 32" fill="none" xmlns="http://www.w3.org/2000/svg">
<path d="M16.472 31.0324C25.0479 31.0324 32 24.0856 32 15.5162C32 6.94685 25.0479 0 16.472 0C7.89619 0 0.944092 6.94685 0.944092 15.5162C0.944092 24.0856 7.89619 31.0324 16.472 31.0324Z" fill="#FF4500"/>
<path d="M26.8301 15.5162C26.8301 14.2572 25.8112 13.2573 24.5695 13.2573C23.9582 13.2573 23.4021 13.4979 22.9945 13.8868C21.4382 12.7759 19.3071 12.0538 16.9352 11.9613L17.9728 7.11012L21.3452 7.83214C21.3825 8.68394 22.0865 9.36903 22.9575 9.36903C23.8469 9.36903 24.5695 8.64701 24.5695 7.75794C24.5695 6.86922 23.8469 6.1472 22.9575 6.1472C22.3275 6.1472 21.7715 6.51753 21.5121 7.05456L17.7507 6.25833C17.6395 6.23969 17.5283 6.25833 17.454 6.3139C17.3614 6.36946 17.3058 6.46196 17.2875 6.57309L16.1384 11.9796C13.7296 12.0538 11.5616 12.7759 9.98656 13.9055C9.56238 13.5006 8.99813 13.2751 8.41155 13.276C7.15155 13.276 6.15094 14.2941 6.15094 15.5349C6.15094 16.4605 6.70668 17.2381 7.4852 17.5901C7.4479 17.8121 7.42959 18.0343 7.42959 18.2752C7.42959 21.7559 11.4876 24.5891 16.4907 24.5891C21.4938 24.5891 25.5518 21.7746 25.5518 18.2752C25.5518 18.053 25.5332 17.8121 25.4962 17.5901C26.2744 17.2381 26.8301 16.4419 26.8301 15.5162ZM11.3022 17.127C11.3022 16.2382 12.0247 15.5162 12.9145 15.5162C13.8039 15.5162 14.5264 16.2382 14.5264 17.127C14.5264 18.0157 13.8039 18.7381 12.9145 18.7381C12.0247 18.7564 11.3022 18.0157 11.3022 17.127ZM20.3263 21.4042C19.2145 22.5152 17.1021 22.5894 16.4907 22.5894C15.8607 22.5894 13.7483 22.4966 12.6547 21.4042C12.4883 21.2375 12.4883 20.9783 12.6547 20.8116C12.8216 20.6453 13.081 20.6453 13.2478 20.8116C13.952 21.5154 15.4345 21.7559 16.4907 21.7559C17.5469 21.7559 19.0477 21.5154 19.7333 20.8116C19.9001 20.6453 20.1595 20.6453 20.3263 20.8116C20.4745 20.9783 20.4745 21.2375 20.3263 21.4042ZM20.0296 18.7564C19.1402 18.7564 18.4177 18.0343 18.4177 17.1456C18.4177 16.2569 19.1402 15.5349 20.0296 15.5349C20.9194 15.5349 21.6419 16.2569 21.6419 17.1456C21.6419 18.0157 20.9194 18.7564 20.0296 18.7564Z" fill="white"/>
</svg>
