<svg width="33" height="32" viewBox="0 0 33 32" fill="none" xmlns="http://www.w3.org/2000/svg">
<g clip-path="url(#clip0_147_1020)">
<circle cx="17.5" cy="15.5" r="12.5" fill="#29781D"/>
<path d="M16.9441 0C8.1089 0 0.944092 7.16481 0.944092 16C0.944092 24.8352 8.1089 32 16.9441 32C25.7793 32 32.9441 24.8352 32.9441 16C32.9441 7.16481 25.7793 0 16.9441 0ZM24.971 12.2421V14.4085C23.9494 14.4089 22.9568 14.2087 22.0207 13.8138C21.4188 13.5596 20.858 13.2322 20.345 12.8365L20.3604 19.5048C20.354 21.0064 19.7599 22.4172 18.6847 23.4799C17.8097 24.3449 16.701 24.8949 15.4992 25.073C15.2168 25.1148 14.9295 25.1362 14.6388 25.1362C13.3524 25.1362 12.1311 24.7195 11.132 23.9506C10.944 23.8059 10.7642 23.6489 10.593 23.4799C9.42778 22.3282 8.8269 20.7673 8.92809 19.1252C9.00528 17.8753 9.50572 16.6833 10.34 15.7489C11.4437 14.5126 12.9878 13.8263 14.6388 13.8263C14.9295 13.8263 15.2168 13.8481 15.4992 13.8899V14.6909V16.9192C15.2315 16.8309 14.9455 16.7823 14.6478 16.7823C13.1394 16.7823 11.9191 18.0129 11.9417 19.5224C11.956 20.4883 12.4835 21.3325 13.2617 21.7979C13.6273 22.0166 14.048 22.1521 14.497 22.1768C14.8487 22.1961 15.1865 22.1471 15.4992 22.0438C16.5769 21.6878 17.3543 20.6756 17.3543 19.4817L17.3579 15.0162V6.86375H20.3414C20.3443 7.15938 20.3743 7.44781 20.43 7.72731C20.6552 8.85863 21.2929 9.84013 22.1804 10.5092C22.9543 11.0929 23.9179 11.4389 24.9623 11.4389C24.963 11.4389 24.9717 11.4389 24.9709 11.4382V12.2421H24.971Z" fill="#DAE6E1"/>
</g>
<defs>
<clipPath id="clip0_147_1020">
<rect width="32" height="32" fill="white" transform="translate(0.944092)"/>
</clipPath>
</defs>
</svg>
